#!OML:ASF F:\VICON\USERDATA\INSTALL\rory3\rory3.ASF
:FULLY-SPECIFIED
:DEGREES
97
root 0.7446745260026756 17.645255278929472 42.67137393386753 -1.9364936022263808 -4.471929613362566 -4.4828586445800545
lfemur -22.398057274621497 -2.6421542161984144 -16.555842088637373
ltibia 27.104072575402824
lfoot -3.429933952721847 -4.834558462155133
ltoes -18.19906910843528
rfemur 0.07120025760473858 0.4637628122937456 28.573221131753794
rtibia 39.53327136377785
rfoot -2.3430049548756458 -10.441167352755338
rtoes 7.938958923862869
lowerback 9.868832605362435 2.5844455251924723 3.7315158982506285
upperback -0.016151674409904088 3.8155703337694993 1.3254134422606778
thorax -5.70132586852458 1.7935423743573504 -1.510510981750129
lowerneck -16.332184946876357 -3.283898094243915 -1.5114468781633636
upperneck 21.127508015887038 -4.489880561349846 1.108848534313832
head 9.46632608458775 -2.0739405419706256 -0.10619749966738218
lclavicle 2.988058470952703e-16 5.4877761982947535e-17
lhumerus -31.904392441660622 3.239413980870488 81.03300261813956
lradius 31.78711422093471
lwrist 11.54946761193448
lhand -29.189922372719117 18.51804847354628
lfingers 7.125020000000001
lthumb -2.7234222950981386 47.69414213990139
rclavicle 2.9974519357837337e-16 5.577070612074382e-17
rhumerus -29.594177365174783 -17.00443178988928 -78.45350673954228
rradius 29.465467322001402
rwrist 1.1315289616648516
rhand -18.8758006219515 24.467260402355347
rfingers 7.125020000000001
rthumb 7.503337304349741 -5.126343521260759
98
root 0.8296467137310978 17.720942453927687 43.69631837578991 -2.2597182344296445 -3.9866790467180784 -4.1353549874638
lfemur -20.518462282126837 -1.8856391885439807 -17.944030089285242
ltibia 29.384797364451128
lfoot -3.561200615501334 -4.689200880098447
ltoes -17.67267111172349
rfemur -2.9120545283956165 -1.147456889480714 27.110691540717443
rtibia 46.1535641053778
rfoot -0.5274188187921318 -10.520353987805565
rtoes 9.595333290284287
lowerback 9.795162018636285 2.442707031818001 3.3492557748472382
upperback -0.022566574405750967 3.6538995914450636 1.1842984608411138
thorax -5.804696948775535 1.7386629932475244 -1.1911548593706234
lowerneck -16.140327567465828 -3.2916554115843737 -1.5993278912554207
upperneck 21.292040908176933 -4.536444875859771 1.2980730249141483
head 9.518285274503281 -2.0902926368519323 -0.07847099976606459
lclavicle 2.9680428005615943e-16 5.3988260787403203e-17
lhumerus -32.328476507333114 2.4668494663131812 80.73108946580668
lradius 32.10631729338783
lwrist 11.575426201919532
lhand -29.25235214197164 18.402911946695205
lfingers 7.125020000000001
lthumb -2.7913713543093825 47.57234131234509
rclavicle 2.9962578409773646e-16 5.568509606895998e-17
rhumerus -29.901895990112358 -17.23453420763795 -78.23582066641193
rradius 28.873110407808475
rwrist 1.6610139942233304
rhand -18.765138676769126 24.146205627630543
rfingers 7.125020000000001
rthumb 7.628582619534396 -5.382615605118804
99
root 0.9014752096411477 17.8157274755218 44.34666060717984 -3.2698424174252065 -4.64500594462912 -2.3406165811990682
lfemur -17.530530847655363 -1.6847297378395005 -20.479601772103184
ltibia 29.802046923231714
lfoot -4.88944606204335 -4.567260834301636
ltoes -16.82729743868932
rfemur -7.430096675786993 -1.7573394261379622 24.441721711452875
rtibia 53.36907405978042
rfoot 0.5201218319352678 -10.818588751237957
rtoes 9.908498276956294
lowerback 10.41995232549739 2.461493332537195 1.8095116273457943
upperback 0.046710249315747576 3.527466120516724 0.9223305922642585
thorax -5.937704678133768 1.6949730943010541 -0.8645909531540859
lowerneck -16.006990499280235 -3.277515222840457 -1.6833651647510501
upperneck 21.49994407183335 -4.534678335881473 1.4621543776985695
head 9.594769188358725 -2.0901601875255107 -0.0477094672111702
lclavicle 2.988101994320431e-16 5.523107176296867e-17
lhumerus -32.5993090863824 1.906753182314648 80.36596443222979
lradius 32.58020198789124
lwrist 11.58977325659204
lhand -29.32918531337528 18.25499845235668
lfingers 7.125020000000001
lthumb -2.8337964055242857 47.5333891753892
rclavicle 2.9958021869636997e-16 5.56524886689987e-17
rhumerus -30.21819927061213 -17.579464977651977 -78.02635965222565
rradius 28.298891751400497
rwrist 2.094793190307162
rhand -18.581336805262385 23.63303839469727
rfingers 7.125020000000001
rthumb 7.804731121947218 -5.805183054076096
100
root 0.9381236754703873 17.873646572520595 44.910107338129976 -3.815005520504555 -5.320144486115806 -1.5832579678710468
lfemur -14.57981669507658 -1.9054008427996354 -21.84559469201437
ltibia 29.521889133592346
lfoot -5.879856592173604 -5.076684852073516
ltoes -17.16842046840417
rfemur -11.795405928597853 -2.503546499058885 23.15510429486942
rtibia 59.07495072913056
rfoot 0.37358255244230687 -11.107299334170886
rtoes 8.456781616376883
lowerback 10.993001745233299 2.346382869352559 0.7838191401960015
upperback 0.23644616753416303 3.2743246653249622 0.7932446695069972
thorax -5.9938887549633035 1.5880947775922316 -0.3789095640085469
lowerneck -15.932105319988104 -3.227242169242517 -1.766776712555359
upperneck 21.65398305232071 -4.45187466111755 1.6051127793440327
head 9.66304882321198 -2.058767600165336 -0.004441734860219426
lclavicle 2.9945591358245446e-16 5.5456393840633124e-17
lhumerus -32.27471997016713 1.9660781134452934 80.05583937188186
lradius 32.615345826967875
lwrist 11.596270680445981
lhand -29.391787552955076 18.15044458944133
lfingers 7.125020000000001
lthumb -2.836218445756546 47.601671508974256
rclavicle 2.991940593882608e-16 5.5375202894918105e-17
rhumerus -30.469813992123665 -17.86918200263703 -77.85451741085232
rradius 27.805103813221905
rwrist 2.339032758072764
rhand -18.36141913413372 23.072149562306517
rfingers 7.125020000000001
rthumb 8.010088051759354 -6.312435845224407
101
root 0.9757598538768353 17.912792294296942 45.4346679209289 -4.163903947402227 -4.569813165761482 -0.7622575363351642
lfemur -11.740629395394725 -2.219125969528162 -23.283318104246067
ltibia 29.09516817859561
lfoot -6.401493080331727 -3.9904274482091284
ltoes -17.550590018949723
rfemur -15.812104490111706 -4.0753377001897135 22.293234867524298
rtibia 62.69935694853682
rfoot -0.8988525279396455 -11.207380579032524
rtoes 6.517277359594159
lowerback 11.194246801589674 1.8655930893555348 -0.1765652379845004
upperback 0.48113699338066623 2.574084191426521 0.7817962889659884
thorax -5.971678438619398 1.2567612570558924 0.18704157589240733
lowerneck -15.877908584366924 -3.1537595886302237 -1.8763289162657084
upperneck 21.695734779734845 -4.3126981430580695 1.7455870580812047
head 9.697464795442148 -2.0023147619407857 0.05907557822773665
lclavicle 2.9979636340000517e-16 5.543267108874186e-17
lhumerus -31.745834995440887 2.097893682291285 79.96410839362149
lradius 32.22900339760914
lwrist 11.748815494630843
lhand -29.481159493286647 18.017034701749076
lfingers 7.125020000000001
lthumb -2.8677061723365234 47.61629071647238
rclavicle 2.9860155662743644e-16 5.4949654573796626e-17
rhumerus -30.712597165093577 -18.180280762558226 -77.78093108803745
rradius 27.45923681609867
rwrist 2.4606941728069542
rhand -18.150264737275958 22.61117487168766
rfingers 7.125020000000001
rthumb 8.218458114128786 -6.815955186142745
